{
  "source": "C:\\Users\\Peter\\Desktop\\stuff\\MIUN\\quantitative_research\\video_compression\\videos\\BVI-HD\\BVI-HD_CDVL_videos\\ORIG\\CloudsZoom_1920x1080_60fps.mp4",
  "output": "C:\\Users\\Peter\\Desktop\\stuff\\MIUN\\quantitative_research\\video_compression\\compressed_videos\\BVI-HD\\av1\\2.5\\CloudsZoom_1920x1080_60fps_av1.mkv",
  "codec": "av1",
  "ok": "Input #0, mov,mp4,m4a,3gp,3g2,mj2, from 'C:\\Users\\Peter\\Desktop\\stuff\\MIUN\\quantitative_research\\video_compression\\videos\\BVI-HD\\BVI-HD_CDVL_videos\\ORIG\\CloudsZoom_1920x1080_60fps.mp4':\n  Metadata:\n    major_brand     : isom\n    minor_version   : 512\n    compatible_brands: isomiso2avc1mp41\n    encoder         : Lavf54.28.101\n  Duration: 00:00:05.00, start: 0.000000, bitrate: 32589 kb/s\n  Stream #0:0[0x1](und): Video: h264 (High 4:4:4 Predictive) (avc1 / 0x31637661), yuv420p(progressive), 1920x1080, 32586 kb/s, 60 fps, 60 tbr, 60 tbn (default)\n    Metadata:\n      handler_name    : VideoHandler\n      vendor_id       : [0][0][0][0]\n[out#0/matroska @ 000002b172f090c0] Codec AVOption b:a (set bitrate (in bits/s)) has not been used for any stream. The most likely reason is either wrong type (e.g. a video option with no video streams) or that it is a private option of some decoder which was not actually used for any stream.\nStream mapping:\n  Stream #0:0 -> #0:0 (h264 (native) -> av1 (libsvtav1))\nPress [q] to stop, [?] for help\nSvt[info]: -------------------------------------------\nSvt[info]: SVT [version]:\tSVT-AV1 Encoder Lib v3.1.0-19-g6ecfe8ec\nSvt[info]: SVT [build]  :\tGCC 15.2.0\t 64 bit\nSvt[info]: LIB Build date: Aug 17 2025 11:37:13\nSvt[info]: -------------------------------------------\nSvt[info]: Level of Parallelism: 5\nSvt[info]: Number of PPCS 93\nSvt[info]: [asm level on system : up to avx2]\nSvt[info]: [asm level selected : up to avx2]\nSvt[info]: -------------------------------------------\nSvt[info]: SVT [config]: main profile\ttier (auto)\tlevel (auto)\nSvt[info]: SVT [config]: width / height / fps numerator / fps denominator \t\t: 1920 / 1080 / 60 / 1\nSvt[info]: SVT [config]: bit-depth / color format \t\t\t\t\t: 8 / YUV420\nSvt[info]: SVT [config]: preset / tune / pred struct \t\t\t\t\t: 4 / PSNR / random access\nSvt[info]: SVT [config]: gop size / mini-gop size / key-frame type \t\t\t: 321 / 16 / key frame\nSvt[info]: SVT [config]: BRC mode / target bitrate (kbps)\t\t\t\t: VBR / 2500 \nSvt[info]: SVT [config]: AQ mode / Variance Boost \t\t\t\t\t: 2 / 0\nSvt[info]: SVT [config]: sharpness / luminance-based QP bias \t\t\t\t: 0 / 0\nSvt[info]: SVT [config]: QP scale compress strength \t\t\t\t\t: 0\nSvt[info]: -------------------------------------------\nOutput #0, matroska, to 'C:\\Users\\Peter\\Desktop\\stuff\\MIUN\\quantitative_research\\video_compression\\compressed_videos\\BVI-HD\\av1\\2.5\\CloudsZoom_1920x1080_60fps_av1.mkv':\n  Metadata:\n    major_brand     : isom\n    minor_version   : 512\n    compatible_brands: isomiso2avc1mp41\n    encoder         : Lavf62.3.100\n  Stream #0:0(und): Video: av1 (AV01 / 0x31305641), yuv420p(tv, progressive), 1920x1080, q=2-31, 2500 kb/s, 60 fps, 1k tbn (default)\n    Metadata:\n      encoder         : Lavc62.11.100 libsvtav1\n      handler_name    : VideoHandler\n      vendor_id       : [0][0][0][0]\n    Side data:\n      cpb: bitrate max/min/avg: 0/0/2500000 buffer size: 2500000 vbv_delay: N/A\nframe=    0 fps=0.0 q=0.0 size=       0KiB time=N/A bitrate=N/A speed=N/A elapsed=0:00:00.52    \nframe=    0 fps=0.0 q=0.0 size=       0KiB time=N/A bitrate=N/A speed=N/A elapsed=0:00:01.06    \nframe=    0 fps=0.0 q=0.0 size=       0KiB time=N/A bitrate=N/A speed=N/A elapsed=0:00:01.61    \nframe=    0 fps=0.0 q=0.0 size=       0KiB time=N/A bitrate=N/A speed=N/A elapsed=0:00:02.12    \nframe=    1 fps=0.4 q=3.0 size=       1KiB time=00:00:00.00 bitrate=N/A speed=   0x elapsed=0:00:02.65    \nframe=   11 fps=3.5 q=22.0 size=       1KiB time=00:00:00.16 bitrate=  34.2kbits/s speed=0.0525x elapsed=0:00:03.17    \nframe=   14 fps=3.8 q=19.0 size=       1KiB time=00:00:00.21 bitrate=  26.3kbits/s speed=0.0587x elapsed=0:00:03.69    \nframe=   23 fps=5.5 q=17.0 size=       1KiB time=00:00:00.36 bitrate=  15.5kbits/s speed=0.0873x elapsed=0:00:04.20    \nframe=   30 fps=6.4 q=13.0 size=       1KiB time=00:00:00.48 bitrate=  11.8kbits/s speed=0.102x elapsed=0:00:04.71    \nframe=   32 fps=6.1 q=14.0 size=       1KiB time=00:00:00.51 bitrate=  11.0kbits/s speed=0.0986x elapsed=0:00:05.23    \nframe=   36 fps=6.2 q=9.0 size=       1KiB time=00:00:00.58 bitrate=   9.8kbits/s speed=0.101x elapsed=0:00:05.77    \nframe=   40 fps=6.3 q=8.0 size=       1KiB time=00:00:00.65 bitrate=   8.8kbits/s speed=0.103x elapsed=0:00:06.31    \nframe=   43 fps=6.3 q=11.0 size=       1KiB time=00:00:00.70 bitrate=   8.1kbits/s speed=0.102x elapsed=0:00:06.84    \nframe=   49 fps=6.7 q=3.0 size=       1KiB time=00:00:00.80 bitrate=   7.1kbits/s speed=0.109x elapsed=0:00:07.35    \nframe=   53 fps=6.7 q=12.0 size=       1KiB time=00:00:00.86 bitrate=   6.6kbits/s speed=0.11x elapsed=0:00:07.87    \nframe=   58 fps=6.9 q=9.0 size=       1KiB time=00:00:00.95 bitrate=   6.0kbits/s speed=0.113x elapsed=0:00:08.39    \nframe=   63 fps=7.1 q=11.0 size=       1KiB time=00:00:01.03 bitrate=   5.5kbits/s speed=0.116x elapsed=0:00:08.91    \nframe=   67 fps=7.1 q=9.0 size=       1KiB time=00:00:01.10 bitrate=   5.2kbits/s speed=0.117x elapsed=0:00:09.43    \nframe=   71 fps=7.1 q=9.0 size=       1KiB time=00:00:01.16 bitrate=   4.9kbits/s speed=0.117x elapsed=0:00:09.96    \nframe=   76 fps=7.2 q=8.0 size=       1KiB time=00:00:01.25 bitrate=   4.6kbits/s speed=0.119x elapsed=0:00:10.49    \nframe=   82 fps=7.4 q=9.0 size=       1KiB time=00:00:01.35 bitrate=   4.2kbits/s speed=0.123x elapsed=0:00:11.01    \nframe=   86 fps=7.5 q=8.0 size=       1KiB time=00:00:01.41 bitrate=   4.0kbits/s speed=0.123x elapsed=0:00:11.54    \nframe=   90 fps=7.5 q=11.0 size=       1KiB time=00:00:01.48 bitrate=   3.8kbits/s speed=0.123x elapsed=0:00:12.06    \nframe=   96 fps=7.6 q=9.0 size=       1KiB time=00:00:01.58 bitrate=   3.6kbits/s speed=0.126x elapsed=0:00:12.58    \nframe=  101 fps=7.7 q=10.0 size=       1KiB time=00:00:01.66 bitrate=   3.4kbits/s speed=0.127x elapsed=0:00:13.09    \nframe=  106 fps=7.8 q=8.0 size=       1KiB time=00:00:01.75 bitrate=   3.3kbits/s speed=0.128x elapsed=0:00:13.63    \nframe=  112 fps=7.9 q=10.0 size=       1KiB time=00:00:01.83 bitrate=   3.1kbits/s speed=0.13x elapsed=0:00:14.14    \nframe=  116 fps=7.9 q=7.0 size=       1KiB time=00:00:01.91 bitrate=   3.0kbits/s speed=0.13x elapsed=0:00:14.70    \nframe=  120 fps=7.9 q=10.0 size=       1KiB time=00:00:01.98 bitrate=   2.9kbits/s speed=0.13x elapsed=0:00:15.22    \nframe=  126 fps=8.0 q=11.0 size=       1KiB time=00:00:02.06 bitrate=   2.8kbits/s speed=0.131x elapsed=0:00:15.74    \nframe=  131 fps=8.0 q=11.0 size=       1KiB time=00:00:02.16 bitrate=   2.6kbits/s speed=0.133x elapsed=0:00:16.29    \nframe=  136 fps=8.1 q=10.0 size=       1KiB time=00:00:02.25 bitrate=   2.5kbits/s speed=0.134x elapsed=0:00:16.81    \nframe=  141 fps=8.1 q=10.0 size=       1KiB time=00:00:02.33 bitrate=   2.4kbits/s speed=0.135x elapsed=0:00:17.32    \nframe=  146 fps=8.2 q=7.0 size=       1KiB time=00:00:02.41 bitrate=   2.4kbits/s speed=0.135x elapsed=0:00:17.84    \nframe=  150 fps=8.2 q=10.0 size=       1KiB time=00:00:02.48 bitrate=   2.3kbits/s speed=0.135x elapsed=0:00:18.36    \nframe=  155 fps=8.2 q=10.0 size=       1KiB time=00:00:02.56 bitrate=   2.2kbits/s speed=0.136x elapsed=0:00:18.86    \nframe=  159 fps=8.2 q=11.0 size=       1KiB time=00:00:02.63 bitrate=   2.2kbits/s speed=0.136x elapsed=0:00:19.38    \nframe=  163 fps=8.2 q=10.0 size=       1KiB time=00:00:02.70 bitrate=   2.1kbits/s speed=0.136x elapsed=0:00:19.91    \nframe=  168 fps=8.2 q=9.0 size=       1KiB time=00:00:02.78 bitrate=   2.0kbits/s speed=0.136x elapsed=0:00:20.41    \nframe=  172 fps=8.2 q=10.0 size=       1KiB time=00:00:02.85 bitrate=   2.0kbits/s speed=0.136x elapsed=0:00:20.94    \nframe=  178 fps=8.3 q=10.0 size=       1KiB time=00:00:02.95 bitrate=   1.9kbits/s speed=0.137x elapsed=0:00:21.50    \nframe=  182 fps=8.3 q=10.0 size=       1KiB time=00:00:03.01 bitrate=   1.9kbits/s speed=0.137x elapsed=0:00:22.02    \nframe=  187 fps=8.3 q=10.0 size=       1KiB time=00:00:03.10 bitrate=   1.8kbits/s speed=0.137x elapsed=0:00:22.55    \nframe=  194 fps=8.4 q=10.0 size=       1KiB time=00:00:03.21 bitrate=   1.8kbits/s speed=0.139x elapsed=0:00:23.07    \nframe=  198 fps=8.4 q=9.0 size=       1KiB time=00:00:03.28 bitrate=   1.7kbits/s speed=0.139x elapsed=0:00:23.59    \nframe=  203 fps=8.4 q=10.0 size=       1KiB time=00:00:03.36 bitrate=   1.7kbits/s speed=0.14x elapsed=0:00:24.11    \nframe=  209 fps=8.5 q=1.0 size=       1KiB time=00:00:03.46 bitrate=   1.6kbits/s speed=0.141x elapsed=0:00:24.63    \nframe=  217 fps=8.6 q=5.0 size=       1KiB time=00:00:03.60 bitrate=   1.6kbits/s speed=0.143x elapsed=0:00:25.15    \nframe=  221 fps=8.6 q=9.0 size=       1KiB time=00:00:03.66 bitrate=   1.6kbits/s speed=0.143x elapsed=0:00:25.69    \nframe=  225 fps=8.6 q=1.0 size=       1KiB time=00:00:03.73 bitrate=   1.5kbits/s speed=0.142x elapsed=0:00:26.21    \nframe=  233 fps=8.7 q=8.0 size=       1KiB time=00:00:03.86 bitrate=   1.5kbits/s speed=0.145x elapsed=0:00:26.75    \nframe=  241 fps=8.8 q=1.0 size=       1KiB time=00:00:04.00 bitrate=   1.4kbits/s speed=0.147x elapsed=0:00:27.28    \nframe=  245 fps=8.8 q=11.0 size=       1KiB time=00:00:04.06 bitrate=   1.4kbits/s speed=0.146x elapsed=0:00:27.81    \nframe=  249 fps=8.8 q=8.0 size=       1KiB time=00:00:04.13 bitrate=   1.4kbits/s speed=0.146x elapsed=0:00:28.34    \nframe=  257 fps=8.9 q=1.0 size=       1KiB time=00:00:04.26 bitrate=   1.3kbits/s speed=0.148x elapsed=0:00:28.86    \nframe=  265 fps=9.0 q=8.0 size=       1KiB time=00:00:04.40 bitrate=   1.3kbits/s speed=0.15x elapsed=0:00:29.40    \nframe=  273 fps=9.1 q=1.0 size=       1KiB time=00:00:04.53 bitrate=   1.3kbits/s speed=0.151x elapsed=0:00:29.93    \nframe=  273 fps=9.0 q=1.0 size=       1KiB time=00:00:04.53 bitrate=   1.3kbits/s speed=0.149x elapsed=0:00:30.45    \nframe=  281 fps=9.1 q=8.0 size=       1KiB time=00:00:04.66 bitrate=   1.2kbits/s speed=0.151x elapsed=0:00:30.97    \n[out#0/matroska @ 000002b172f090c0] video:1372KiB audio:0KiB subtitle:0KiB other streams:0KiB global headers:0KiB muxing overhead: 0.150847%\nframe=  300 fps=9.5 q=27.0 Lsize=    1374KiB time=00:00:04.98 bitrate=2258.5kbits/s speed=0.159x elapsed=0:00:31.41    \n",
  "seconds": 31.787304878234863,
  "probe_out": {}
}